<svg width="25" height="16" viewBox="0 0 25 16" fill="none" xmlns="http://www.w3.org/2000/svg">
<path fill-rule="evenodd" clip-rule="evenodd" d="M11.9463 15.7369H13.4222C13.4222 15.7369 13.865 15.6559 14.0863 15.4127C14.3077 15.1696 14.3077 14.6833 14.3077 14.6833C14.3077 14.6833 14.3077 12.5761 15.1932 12.2519C16.0788 11.9277 17.2595 14.3591 18.4402 15.2507C19.3257 15.9801 19.9898 15.818 19.9898 15.818L23.2367 15.7369C23.2367 15.7369 24.934 15.6559 24.1222 14.116C24.0485 14.0349 23.6795 13.0624 21.6871 11.0362C19.6208 8.92895 19.916 9.33418 22.3512 5.68704C23.8271 3.49876 24.4174 2.202 24.2698 1.55362C24.1222 0.986285 23.0153 1.14838 23.0153 1.14838H19.3257C19.3257 1.14838 19.0305 1.06733 18.8829 1.22943C18.6615 1.39152 18.5877 1.63467 18.5877 1.63467C18.5877 1.63467 17.9974 3.33666 17.2595 4.79552C15.636 7.79428 14.9719 7.95637 14.7505 7.79428C14.1601 7.38904 14.3077 6.01123 14.3077 5.11971C14.3077 2.202 14.7505 0.986284 13.496 0.662094C13.127 0.581047 12.8319 0.5 11.7987 0.5C10.4705 0.5 9.36357 0.5 8.77322 0.82419C8.33046 1.06733 8.03528 1.55362 8.25666 1.55362C8.47804 1.55362 9.06839 1.71571 9.36357 2.12095C9.65874 2.85038 9.65874 4.06609 9.65874 4.06609C9.65874 4.06609 9.88012 7.55114 9.14219 7.95637C8.62563 8.28056 7.96149 7.63218 6.48562 4.87657C5.74769 3.49876 5.15734 1.87781 5.15734 1.87781C5.15734 1.87781 5.08355 1.55362 4.86217 1.39152C4.64079 1.22943 4.27182 1.14838 4.27182 1.14838H0.803528C0.803528 1.14838 0.286974 1.14838 0.0655942 1.39152C-0.0819927 1.63467 0.0655942 2.0399 0.0655942 2.0399C0.0655942 2.0399 2.79595 9.00999 5.89527 12.5761C8.77322 15.9801 11.9463 15.7369 11.9463 15.7369Z" fill="white"/>
</svg>
