<svg width="32" height="32" viewBox="0 0 32 32" fill="none" xmlns="http://www.w3.org/2000/svg">
<path d="M23.5333 24C22.0667 24 20.88 25.2 20.88 26.6667C20.88 28.1333 22.0667 29.3333 23.5333 29.3333C25 29.3333 26.2 28.1333 26.2 26.6667C26.2 25.2 25 24 23.5333 24ZM10.2 24C8.73335 24 7.54668 25.2 7.54668 26.6667C7.54668 28.1333 8.73335 29.3333 10.2 29.3333C11.6667 29.3333 12.8667 28.1333 12.8667 26.6667C12.8667 25.2 11.6667 24 10.2 24ZM10.2 20L11.6667 17.3333H21.6C22.6 17.3333 23.48 16.7867 23.9333 15.96L29.8 5.33333H7.81335L6.56001 2.66667H2.20001V5.33333H4.86668L9.66668 15.4533L5.69335 22.6667H26.2V20H10.2Z" fill="#3F1D14"/>
</svg>
