<svg width="28" height="28" viewBox="0 0 28 28" fill="none" xmlns="http://www.w3.org/2000/svg">
<path d="M21.5333 22C20.0667 22 18.88 23.2 18.88 24.6667C18.88 26.1333 20.0667 27.3333 21.5333 27.3333C23 27.3333 24.2 26.1333 24.2 24.6667C24.2 23.2 23 22 21.5333 22ZM8.20001 22C6.73335 22 5.54668 23.2 5.54668 24.6667C5.54668 26.1333 6.73335 27.3333 8.20001 27.3333C9.66668 27.3333 10.8667 26.1333 10.8667 24.6667C10.8667 23.2 9.66668 22 8.20001 22ZM8.20001 18L9.66668 15.3333H19.6C20.6 15.3333 21.48 14.7867 21.9333 13.96L27.8 3.33333H5.81335L4.56001 0.666664H0.200012V3.33333H2.86668L7.66668 13.4533L3.69335 20.6667H24.2V18H8.20001Z" fill="#3F1D14"/>
</svg>
