<svg width="271" height="47" viewBox="0 0 271 47" fill="none" xmlns="http://www.w3.org/2000/svg">
<path d="M16.9922 25.7578V1.875H22.8516V25.7578C22.8516 28.0234 22.3672 29.9531 21.3984 31.5469C20.4297 33.1406 19.1094 34.3594 17.4375 35.2031C15.7656 36.0469 13.8672 36.4688 11.7422 36.4688C9.57031 36.4688 7.64062 36.1016 5.95312 35.3672C4.28125 34.6328 2.96875 33.5078 2.01562 31.9922C1.0625 30.4766 0.585938 28.5547 0.585938 26.2266H6.49219C6.49219 27.5703 6.70312 28.6562 7.125 29.4844C7.5625 30.2969 8.17188 30.8906 8.95312 31.2656C9.75 31.625 10.6797 31.8047 11.7422 31.8047C12.7578 31.8047 13.6562 31.5781 14.4375 31.125C15.2344 30.6562 15.8594 29.9766 16.3125 29.0859C16.7656 28.1797 16.9922 27.0703 16.9922 25.7578ZM44.3203 30.0234V10.6406H49.9922V36H44.6484L44.3203 30.0234ZM45.1172 24.75L47.0156 24.7031C47.0156 26.4062 46.8281 27.9766 46.4531 29.4141C46.0781 30.8359 45.5 32.0781 44.7188 33.1406C43.9375 34.1875 42.9375 35.0078 41.7188 35.6016C40.5 36.1797 39.0391 36.4688 37.3359 36.4688C36.1016 36.4688 34.9688 36.2891 33.9375 35.9297C32.9062 35.5703 32.0156 35.0156 31.2656 34.2656C30.5312 33.5156 29.9609 32.5391 29.5547 31.3359C29.1484 30.1328 28.9453 28.6953 28.9453 27.0234V10.6406H34.5938V27.0703C34.5938 27.9922 34.7031 28.7656 34.9219 29.3906C35.1406 30 35.4375 30.4922 35.8125 30.8672C36.1875 31.2422 36.625 31.5078 37.125 31.6641C37.625 31.8203 38.1562 31.8984 38.7188 31.8984C40.3281 31.8984 41.5938 31.5859 42.5156 30.9609C43.4531 30.3203 44.1172 29.4609 44.5078 28.3828C44.9141 27.3047 45.1172 26.0938 45.1172 24.75ZM61.8281 10.6406V36H56.1562V10.6406H61.8281ZM55.7812 3.98438C55.7812 3.125 56.0625 2.41406 56.625 1.85156C57.2031 1.27344 58 0.984375 59.0156 0.984375C60.0156 0.984375 60.8047 1.27344 61.3828 1.85156C61.9609 2.41406 62.25 3.125 62.25 3.98438C62.25 4.82812 61.9609 5.53125 61.3828 6.09375C60.8047 6.65625 60.0156 6.9375 59.0156 6.9375C58 6.9375 57.2031 6.65625 56.625 6.09375C56.0625 5.53125 55.7812 4.82812 55.7812 3.98438ZM78.375 31.9688C79.2969 31.9688 80.125 31.7891 80.8594 31.4297C81.6094 31.0547 82.2109 30.5391 82.6641 29.8828C83.1328 29.2266 83.3906 28.4688 83.4375 27.6094H88.7578C88.7266 29.25 88.2422 30.7422 87.3047 32.0859C86.3672 33.4297 85.125 34.5 83.5781 35.2969C82.0312 36.0781 80.3203 36.4688 78.4453 36.4688C76.5078 36.4688 74.8203 36.1406 73.3828 35.4844C71.9453 34.8125 70.75 33.8906 69.7969 32.7188C68.8438 31.5469 68.125 30.1953 67.6406 28.6641C67.1719 27.1328 66.9375 25.4922 66.9375 23.7422V22.9219C66.9375 21.1719 67.1719 19.5312 67.6406 18C68.125 16.4531 68.8438 15.0938 69.7969 13.9219C70.75 12.75 71.9453 11.8359 73.3828 11.1797C74.8203 10.5078 76.5 10.1719 78.4219 10.1719C80.4531 10.1719 82.2344 10.5781 83.7656 11.3906C85.2969 12.1875 86.5 13.3047 87.375 14.7422C88.2656 16.1641 88.7266 17.8203 88.7578 19.7109H83.4375C83.3906 18.7734 83.1562 17.9297 82.7344 17.1797C82.3281 16.4141 81.75 15.8047 81 15.3516C80.2656 14.8984 79.3828 14.6719 78.3516 14.6719C77.2109 14.6719 76.2656 14.9062 75.5156 15.375C74.7656 15.8281 74.1797 16.4531 73.7578 17.25C73.3359 18.0312 73.0312 18.9141 72.8438 19.8984C72.6719 20.8672 72.5859 21.875 72.5859 22.9219V23.7422C72.5859 24.7891 72.6719 25.8047 72.8438 26.7891C73.0156 27.7734 73.3125 28.6562 73.7344 29.4375C74.1719 30.2031 74.7656 30.8203 75.5156 31.2891C76.2656 31.7422 77.2188 31.9688 78.375 31.9688ZM100.453 33.2344L107.344 10.6406H113.391L103.219 39.8672C102.984 40.4922 102.68 41.1719 102.305 41.9062C101.93 42.6406 101.438 43.3359 100.828 43.9922C100.234 44.6641 99.4922 45.2031 98.6016 45.6094C97.7109 46.0312 96.6328 46.2422 95.3672 46.2422C94.8672 46.2422 94.3828 46.1953 93.9141 46.1016C93.4609 46.0234 93.0312 45.9375 92.625 45.8438L92.6016 41.5312C92.7578 41.5469 92.9453 41.5625 93.1641 41.5781C93.3984 41.5938 93.5859 41.6016 93.7266 41.6016C94.6641 41.6016 95.4453 41.4844 96.0703 41.25C96.6953 41.0312 97.2031 40.6719 97.5938 40.1719C98 39.6719 98.3438 39 98.625 38.1562L100.453 33.2344ZM96.5625 10.6406L102.586 29.625L103.594 35.5781L99.6797 36.5859L90.4688 10.6406H96.5625ZM128.602 0H134.25V30.5859L133.711 36H128.602V0ZM150.797 23.0859V23.5781C150.797 25.4531 150.586 27.1797 150.164 28.7578C149.758 30.3203 149.133 31.6797 148.289 32.8359C147.461 33.9922 146.43 34.8906 145.195 35.5312C143.977 36.1562 142.562 36.4688 140.953 36.4688C139.375 36.4688 138 36.1719 136.828 35.5781C135.656 34.9844 134.672 34.1406 133.875 33.0469C133.094 31.9531 132.461 30.6484 131.977 29.1328C131.492 27.6172 131.148 25.9453 130.945 24.1172V22.5469C131.148 20.7031 131.492 19.0312 131.977 17.5312C132.461 16.0156 133.094 14.7109 133.875 13.6172C134.672 12.5078 135.648 11.6562 136.805 11.0625C137.977 10.4688 139.344 10.1719 140.906 10.1719C142.531 10.1719 143.961 10.4844 145.195 11.1094C146.445 11.7344 147.484 12.625 148.312 13.7812C149.141 14.9219 149.758 16.2812 150.164 17.8594C150.586 19.4375 150.797 21.1797 150.797 23.0859ZM145.148 23.5781V23.0859C145.148 21.9453 145.055 20.875 144.867 19.875C144.68 18.8594 144.367 17.9688 143.93 17.2031C143.508 16.4375 142.93 15.8359 142.195 15.3984C141.477 14.9453 140.578 14.7188 139.5 14.7188C138.5 14.7188 137.641 14.8906 136.922 15.2344C136.203 15.5781 135.602 16.0469 135.117 16.6406C134.633 17.2344 134.25 17.9219 133.969 18.7031C133.703 19.4844 133.523 20.3281 133.43 21.2344V25.4766C133.57 26.6484 133.867 27.7266 134.32 28.7109C134.789 29.6797 135.445 30.4609 136.289 31.0547C137.133 31.6328 138.219 31.9219 139.547 31.9219C140.594 31.9219 141.477 31.7109 142.195 31.2891C142.914 30.8672 143.484 30.2812 143.906 29.5312C144.344 28.7656 144.656 27.875 144.844 26.8594C145.047 25.8438 145.148 24.75 145.148 23.5781ZM166.758 36.4688C164.883 36.4688 163.188 36.1641 161.672 35.5547C160.172 34.9297 158.891 34.0625 157.828 32.9531C156.781 31.8438 155.977 30.5391 155.414 29.0391C154.852 27.5391 154.57 25.9219 154.57 24.1875V23.25C154.57 21.2656 154.859 19.4688 155.438 17.8594C156.016 16.25 156.82 14.875 157.852 13.7344C158.883 12.5781 160.102 11.6953 161.508 11.0859C162.914 10.4766 164.438 10.1719 166.078 10.1719C167.891 10.1719 169.477 10.4766 170.836 11.0859C172.195 11.6953 173.32 12.5547 174.211 13.6641C175.117 14.7578 175.789 16.0625 176.227 17.5781C176.68 19.0938 176.906 20.7656 176.906 22.5938V25.0078H157.312V20.9531H171.328V20.5078C171.297 19.4922 171.094 18.5391 170.719 17.6484C170.359 16.7578 169.805 16.0391 169.055 15.4922C168.305 14.9453 167.305 14.6719 166.055 14.6719C165.117 14.6719 164.281 14.875 163.547 15.2812C162.828 15.6719 162.227 16.2422 161.742 16.9922C161.258 17.7422 160.883 18.6484 160.617 19.7109C160.367 20.7578 160.242 21.9375 160.242 23.25V24.1875C160.242 25.2969 160.391 26.3281 160.688 27.2812C161 28.2188 161.453 29.0391 162.047 29.7422C162.641 30.4453 163.359 31 164.203 31.4062C165.047 31.7969 166.008 31.9922 167.086 31.9922C168.445 31.9922 169.656 31.7188 170.719 31.1719C171.781 30.625 172.703 29.8516 173.484 28.8516L176.461 31.7344C175.914 32.5312 175.203 33.2969 174.328 34.0312C173.453 34.75 172.383 35.3359 171.117 35.7891C169.867 36.2422 168.414 36.4688 166.758 36.4688ZM195.609 30.9141V18.8203C195.609 17.9141 195.445 17.1328 195.117 16.4766C194.789 15.8203 194.289 15.3125 193.617 14.9531C192.961 14.5938 192.133 14.4141 191.133 14.4141C190.211 14.4141 189.414 14.5703 188.742 14.8828C188.07 15.1953 187.547 15.6172 187.172 16.1484C186.797 16.6797 186.609 17.2812 186.609 17.9531H180.984C180.984 16.9531 181.227 15.9844 181.711 15.0469C182.195 14.1094 182.898 13.2734 183.82 12.5391C184.742 11.8047 185.844 11.2266 187.125 10.8047C188.406 10.3828 189.844 10.1719 191.438 10.1719C193.344 10.1719 195.031 10.4922 196.5 11.1328C197.984 11.7734 199.148 12.7422 199.992 14.0391C200.852 15.3203 201.281 16.9297 201.281 18.8672V30.1406C201.281 31.2969 201.359 32.3359 201.516 33.2578C201.688 34.1641 201.93 34.9531 202.242 35.625V36H196.453C196.188 35.3906 195.977 34.6172 195.82 33.6797C195.68 32.7266 195.609 31.8047 195.609 30.9141ZM196.43 20.5781L196.477 24.0703H192.422C191.375 24.0703 190.453 24.1719 189.656 24.375C188.859 24.5625 188.195 24.8438 187.664 25.2188C187.133 25.5938 186.734 26.0469 186.469 26.5781C186.203 27.1094 186.07 27.7109 186.07 28.3828C186.07 29.0547 186.227 29.6719 186.539 30.2344C186.852 30.7812 187.305 31.2109 187.898 31.5234C188.508 31.8359 189.242 31.9922 190.102 31.9922C191.258 31.9922 192.266 31.7578 193.125 31.2891C194 30.8047 194.688 30.2188 195.188 29.5312C195.688 28.8281 195.953 28.1641 195.984 27.5391L197.812 30.0469C197.625 30.6875 197.305 31.375 196.852 32.1094C196.398 32.8438 195.805 33.5469 195.07 34.2188C194.352 34.875 193.484 35.4141 192.469 35.8359C191.469 36.2578 190.312 36.4688 189 36.4688C187.344 36.4688 185.867 36.1406 184.57 35.4844C183.273 34.8125 182.258 33.9141 181.523 32.7891C180.789 31.6484 180.422 30.3594 180.422 28.9219C180.422 27.5781 180.672 26.3906 181.172 25.3594C181.688 24.3125 182.438 23.4375 183.422 22.7344C184.422 22.0312 185.641 21.5 187.078 21.1406C188.516 20.7656 190.156 20.5781 192 20.5781H196.43ZM222.445 30.0234V10.6406H228.117V36H222.773L222.445 30.0234ZM223.242 24.75L225.141 24.7031C225.141 26.4062 224.953 27.9766 224.578 29.4141C224.203 30.8359 223.625 32.0781 222.844 33.1406C222.062 34.1875 221.062 35.0078 219.844 35.6016C218.625 36.1797 217.164 36.4688 215.461 36.4688C214.227 36.4688 213.094 36.2891 212.062 35.9297C211.031 35.5703 210.141 35.0156 209.391 34.2656C208.656 33.5156 208.086 32.5391 207.68 31.3359C207.273 30.1328 207.07 28.6953 207.07 27.0234V10.6406H212.719V27.0703C212.719 27.9922 212.828 28.7656 213.047 29.3906C213.266 30 213.562 30.4922 213.938 30.8672C214.312 31.2422 214.75 31.5078 215.25 31.6641C215.75 31.8203 216.281 31.8984 216.844 31.8984C218.453 31.8984 219.719 31.5859 220.641 30.9609C221.578 30.3203 222.242 29.4609 222.633 28.3828C223.039 27.3047 223.242 26.0938 223.242 24.75ZM245.531 10.6406V14.7656H231.234V10.6406H245.531ZM235.359 4.42969H241.008V28.9922C241.008 29.7734 241.117 30.375 241.336 30.7969C241.57 31.2031 241.891 31.4766 242.297 31.6172C242.703 31.7578 243.18 31.8281 243.727 31.8281C244.117 31.8281 244.492 31.8047 244.852 31.7578C245.211 31.7109 245.5 31.6641 245.719 31.6172L245.742 35.9297C245.273 36.0703 244.727 36.1953 244.102 36.3047C243.492 36.4141 242.789 36.4688 241.992 36.4688C240.695 36.4688 239.547 36.2422 238.547 35.7891C237.547 35.3203 236.766 34.5625 236.203 33.5156C235.641 32.4688 235.359 31.0781 235.359 29.3438V4.42969ZM257.25 33.2344L264.141 10.6406H270.188L260.016 39.8672C259.781 40.4922 259.477 41.1719 259.102 41.9062C258.727 42.6406 258.234 43.3359 257.625 43.9922C257.031 44.6641 256.289 45.2031 255.398 45.6094C254.508 46.0312 253.43 46.2422 252.164 46.2422C251.664 46.2422 251.18 46.1953 250.711 46.1016C250.258 46.0234 249.828 45.9375 249.422 45.8438L249.398 41.5312C249.555 41.5469 249.742 41.5625 249.961 41.5781C250.195 41.5938 250.383 41.6016 250.523 41.6016C251.461 41.6016 252.242 41.4844 252.867 41.25C253.492 41.0312 254 40.6719 254.391 40.1719C254.797 39.6719 255.141 39 255.422 38.1562L257.25 33.2344ZM253.359 10.6406L259.383 29.625L260.391 35.5781L256.477 36.5859L247.266 10.6406H253.359Z" fill="#9B0741"/>
</svg>
