<svg width="24" height="24" viewBox="0 0 24 24" fill="none" xmlns="http://www.w3.org/2000/svg">
<path d="M17.0067 15.0067H15.9534L15.58 14.6467C16.8867 13.1267 17.6734 11.1533 17.6734 9.00666C17.6734 4.22 13.7934 0.339996 9.00669 0.339996C4.22003 0.339996 0.340027 4.22 0.340027 9.00666C0.340027 13.7933 4.22003 17.6733 9.00669 17.6733C11.1534 17.6733 13.1267 16.8867 14.6467 15.58L15.0067 15.9533V17.0067L21.6734 23.66L23.66 21.6733L17.0067 15.0067ZM9.00669 15.0067C5.68669 15.0067 3.00669 12.3267 3.00669 9.00666C3.00669 5.68666 5.68669 3.00666 9.00669 3.00666C12.3267 3.00666 15.0067 5.68666 15.0067 9.00666C15.0067 12.3267 12.3267 15.0067 9.00669 15.0067Z" fill="#3F1D14"/>
</svg>
