<svg width="32" height="32" viewBox="0 0 32 32" fill="none" xmlns="http://www.w3.org/2000/svg">
<path d="M21.0067 19.0067H19.9534L19.58 18.6467C20.8867 17.1267 21.6734 15.1533 21.6734 13.0067C21.6734 8.22 17.7934 4.34 13.0067 4.34C8.22003 4.34 4.34003 8.22 4.34003 13.0067C4.34003 17.7933 8.22003 21.6733 13.0067 21.6733C15.1534 21.6733 17.1267 20.8867 18.6467 19.58L19.0067 19.9533V21.0067L25.6734 27.66L27.66 25.6733L21.0067 19.0067ZM13.0067 19.0067C9.68669 19.0067 7.00669 16.3267 7.00669 13.0067C7.00669 9.68667 9.68669 7.00667 13.0067 7.00667C16.3267 7.00667 19.0067 9.68667 19.0067 13.0067C19.0067 16.3267 16.3267 19.0067 13.0067 19.0067Z" fill="#3F1D14"/>
</svg>
