<svg width="49" height="41" viewBox="0 0 49 41" fill="none" xmlns="http://www.w3.org/2000/svg">
<path d="M1.63333 10.6999L24.5 23.7666L47.3667 10.6999M4.9 0.899902H44.1C44.9664 0.899902 45.7973 1.24407 46.4099 1.85669C47.0225 2.46931 47.3667 3.30019 47.3667 4.16657V36.8332C47.3667 37.6996 47.0225 38.5305 46.4099 39.1431C45.7973 39.7557 44.9664 40.0999 44.1 40.0999H4.9C4.03362 40.0999 3.20273 39.7557 2.59012 39.1431C1.9775 38.5305 1.63333 37.6996 1.63333 36.8332V4.16657C1.63333 3.30019 1.9775 2.46931 2.59012 1.85669C3.20273 1.24407 4.03362 0.899902 4.9 0.899902V0.899902Z" stroke="#3F1D14" stroke-width="1.6"/>
</svg>
